PathFileType	4	(X/Y/Z)	C:\Users\Willi\SynologyDrive\Deimel_MSc_Deadlift\Athlete_03\Athlete_3_22_07_06\dl_80\marker_experimental.trc
DataRate	CameraRate	NumFrames	NumMarkers	Units	OrigDataRate	OrigDataStartFrame	OrigNumFrames
200.000000	200.000000	4	59	mm	200.000000	2481	3308
Frame#	Time	BL			BR			GLAB			RFHD			LFHD			C7			T6			SPINMOL			SPINM2			SPINM3			T12			BELTOL			BELT2			BELT3			SACROL			SACR2			SACR3			LTHOL			LTH2			LTH3			LSHAOL			LSHA2			LSHA3			LHEE			LTOE			LM5			RTHOL			RTH2			RTH3			RSHAOL			RSHA2			RSHA3			RHEE			RTOE			RM5			STRN			XIPH			LACR			LUAOL			LUA2			LUA3			LLAOL			LLA2			LLA3			LWRU			RACR			RUAOL			RUA2			RUA3			RLAOL			RLA2			RLA3			RWRU			USERMO0			USERMO1			USERMO2			USERMO3			USERMO4			USERMO5			
		X1	Y1	Z1	X2	Y2	Z2	X3	Y3	Z3	X4	Y4	Z4	X5	Y5	Z5	X6	Y6	Z6	X7	Y7	Z7	X8	Y8	Z8	X9	Y9	Z9	X10	Y10	Z10	X11	Y11	Z11	X12	Y12	Z12	X13	Y13	Z13	X14	Y14	Z14	X15	Y15	Z15	X16	Y16	Z16	X17	Y17	Z17	X18	Y18	Z18	X19	Y19	Z19	X20	Y20	Z20	X21	Y21	Z21	X22	Y22	Z22	X23	Y23	Z23	X24	Y24	Z24	X25	Y25	Z25	X26	Y26	Z26	X27	Y27	Z27	X28	Y28	Z28	X29	Y29	Z29	X30	Y30	Z30	X31	Y31	Z31	X32	Y32	Z32	X33	Y33	Z33	X34	Y34	Z34	X35	Y35	Z35	X36	Y36	Z36	X37	Y37	Z37	X38	Y38	Z38	X39	Y39	Z39	X40	Y40	Z40	X41	Y41	Z41	X42	Y42	Z42	X43	Y43	Z43	X44	Y44	Z44	X45	Y45	Z45	X46	Y46	Z46	X47	Y47	Z47	X48	Y48	Z48	X49	Y49	Z49	X50	Y50	Z50	X51	Y51	Z51	X52	Y52	Z52	X53	Y53	Z53	X54	Y54	Z54	X55	Y55	Z55	X56	Y56	Z56	X57	Y57	Z57	X58	Y58	Z58	X59	Y59	Z59	

2482	12.405	134.1459808349609	673.3258666992189	-2320.189697265625	185.4579467773438	656.23828125	-98.9889755249023	195.2014312744141	1521.859619140625	-1204.011596679688	146.9256134033203	1558.793212890625	-1125.150024414062	145.8280792236328	1563.533325195312	-1284.007690429688	-57.21554946899414	1465.42822265625	-1204.283447265625	-111.3064346313477	1250.091918945312	-1212.701538085938	-112.7268524169922	1219.51806640625	-1216.108520507812	-114.5436096191406	1161.677001953125	-1160.853149414062	-108.3383865356445	1158.161010742188	-1209.986206054688	-92.47519683837891	1119.664916992188	-1208.603637695312	-112.1306610107422	1086.95703125	-1212.781494140625	-103.3353118896484	1027.1787109375	-1160.58154296875	-109.4119338989258	1024.903686523438	-1210.345825195312	-101.9654312133789	976.2445678710939	-1230.271728515625	-90.82341766357422	985.7582397460939	-1181.16748046875	-123.2179260253906	928.7360839843751	-1189.440673828125	39.91424179077148	758.9965209960939	-1430.879272460938	6.619925498962402	690.8088989257814	-1405.15625	49.67496490478516	698.3508911132814	-1429.363525390625	50.46512603759766	345.2451477050782	-1423.134521484375	14.43506717681885	276.3225402832032	-1409.937744140625	62.18356704711914	284.5073547363282	-1420.22265625	1.394164323806763	65.97690582275399	-1330.851196289062	209.5423278808594	75.46390533447274	-1355.541870117188	158.0651245117188	50.88274765014658	-1458.216796875	36.28713989257812	731.9863281250001	-1001.884094238281	82.43270874023438	669.4199218750001	-983.0320434570312	37.73073577880859	669.8153686523439	-1006.058044433594	28.32777404785156	337.8825073242188	-1003.513061523438	74.1533203125	272.9437255859376	-999.2351684570312	25.79785537719727	277.4001770019532	-1013.751342773438	3.028633117675781	64.56230926513679	-1103.567626953125	210.1536407470703	69.01163482666023	-1058.730590820312	152.7480010986328	64.90660095214849	-965.6986694335938	94.01612091064453	1387.028564453125	-1217.205932617188	167.3679809570312	1253.199340820312	-1217.430297851562	4.03372859954834	1371.548461914062	-1424.469970703125	27.03535842895508	1220.872192382812	-1486.901123046875	18.48024368286133	1156.756958007812	-1494.388916015625	68.05291748046875	1171.019775390625	-1492.4814453125	139.8623962402344	949.8290405273439	-1476.10595703125	137.4949798583984	885.1483154296876	-1485.469604492188	167.9560852050781	898.9337768554689	-1448.521362304688	172.4586944580078	799.4176635742189	-1464.836669921875	29.67796516418457	1369.586303710938	-1006.672424316406	82.05199432373047	1189.140258789062	-966.1279296874999	120.0960006713867	1141.689575195312	-990.8483886718749	90.77452087402344	1124.874633789062	-952.8609008789061	159.0721282958984	934.1386108398439	-973.7354736328124	182.9787445068359	884.4422607421876	-1007.502563476562	164.1255645751953	871.5695190429689	-961.5608520507812	177.5429077148438	793.9313964843751	-965.4965209960938	0.05039549991488457	0.007732110098004345	-0.06824249774217606	0.05880999937653542	0.06984329968690872	-0.06441009789705276	0.02562040090560913	0.06741529703140259	-0.04412329941987991	0.09611210227012634	2.175470113754272	-2.043009996414185	1.935639977455139	2.850419998168945	-1.904539942741394	2.673939943313599	0	0	
2483	12.41	133.9889221191406	673.1046752929689	-2320.12548828125	185.3648529052734	655.9891357421875	-98.92604827880855	197.1526794433594	1521.595947265625	-1203.930786132812	148.9483947753906	1558.629638671875	-1125.072143554688	147.8610229492188	1563.3642578125	-1283.933837890625	-55.40146636962891	1465.767822265625	-1204.241455078125	-110.3403015136719	1250.713134765625	-1212.671142578125	-111.8820495605469	1220.143310546875	-1216.075073242188	-113.9437484741211	1162.316528320312	-1160.8154296875	-107.745964050293	1158.771240234375	-1209.951049804688	-92.18837738037109	1120.21142578125	-1208.566162109375	-111.8468170166016	1087.513427734375	-1212.73193359375	-103.3185424804688	1027.688842773438	-1160.5390625	-109.379524230957	1025.444458007812	-1210.306030273438	-102.0724411010742	976.6046142578126	-1230.225463867188	-90.96320343017578	986.1087036132814	-1181.133666992188	-123.3923416137695	929.1101684570314	-1189.425903320312	39.77869033813477	758.9247436523439	-1430.879028320312	6.519420146942139	690.7145385742189	-1405.175415039062	49.60028076171875	698.2791137695314	-1429.344116210938	50.4931755065918	345.2440795898439	-1423.189331054688	14.457839012146	276.3252258300782	-1410.020874023438	62.21583557128906	284.5048828125001	-1420.263305664062	1.398615956306458	65.97157287597665	-1330.858154296875	209.5406494140625	75.47428894042977	-1355.54638671875	158.0657348632812	50.87923431396494	-1458.22021484375	36.14095306396484	731.8558349609376	-1001.798400878906	82.26400756835938	669.2919921875001	-982.9403076171875	37.59239959716797	669.6861572265626	-1005.9951171875	28.3262825012207	337.8614807128907	-1003.396118164062	74.1539306640625	272.9239501953126	-999.151611328125	25.74277114868164	277.3876953125001	-1013.612121582031	3.016633749008179	64.55720520019538	-1103.544677734375	210.1504821777344	69.02043914794929	-1058.72509765625	152.7429504394531	64.90013122558599	-965.6911010742188	95.56906127929688	1386.861450195312	-1217.11328125	168.3918609619141	1252.69873046875	-1217.305419921875	5.668114185333252	1371.710571289062	-1424.413452148438	28.23310470581055	1220.968627929688	-1486.81689453125	19.49035263061523	1156.880126953125	-1494.35009765625	69.10755157470703	1170.987060546875	-1492.389892578125	140.2959747314453	949.6082763671876	-1476.02294921875	137.7548370361328	884.9279785156251	-1485.380859375	168.2279052734375	898.6370849609376	-1448.415893554688	172.4983673095703	799.1063232421876	-1464.738037109375	31.15309715270996	1369.639282226562	-1006.608276367187	83.01393890380859	1189.04736328125	-966.1126708984374	120.9042205810547	1141.485595703125	-990.8536987304686	91.56975555419922	1124.753662109375	-952.8469848632811	159.3577117919922	933.8660278320314	-973.6807250976561	183.1647338867188	884.1168823242189	-1007.444641113281	164.2939605712891	871.2810668945314	-961.5013427734375	177.5592498779297	793.6359252929689	-965.4427490234375	0.05124710127711296	0.007822410203516487	-0.0672634020447731	0.06344330310821533	0.06815759837627411	-0.06538449972867966	0.02537430077791214	0.06916079670190811	-0.04441440105438232	0.09638389945030212	2.175750017166138	-2.043359994888306	1.933789968490601	2.851380109786987	-1.903309941291809	2.682519912719727	0	0	
2484	12.415	133.8257751464844	672.8734130859376	-2320.061279296875	185.2655181884766	655.7267456054688	-98.86388397216793	199.1547088623047	1521.30908203125	-1203.839477539062	151.0220031738281	1558.44677734375	-1124.986450195312	149.9517822265625	1563.178833007812	-1283.851684570312	-53.54012298583984	1466.107543945312	-1204.19921875	-109.336181640625	1251.342041015625	-1212.641357421875	-111.0057220458984	1220.777587890625	-1216.041870117188	-113.3183288574219	1162.966430664062	-1160.777954101562	-107.1266250610352	1159.391235351562	-1209.916259765625	-91.88349151611328	1120.769653320312	-1208.528686523438	-111.5446090698242	1088.081420898438	-1212.682495117188	-103.2857208251953	1028.21142578125	-1160.497192382812	-109.3333282470703	1025.997924804688	-1210.265258789062	-102.1704254150391	976.9793090820314	-1230.179321289062	-91.09537506103516	986.4758911132814	-1181.098266601562	-123.5629196166992	929.5031127929689	-1189.408203125	39.63965225219727	758.8544311523439	-1430.87841796875	6.414309024810791	690.6228637695314	-1405.19189453125	49.52209854125977	698.2046508789064	-1429.327880859375	50.51345443725586	345.2434387207032	-1423.241821289062	14.47417640686035	276.3273925781251	-1410.099975585938	62.24130630493164	284.5032348632814	-1420.30224609375	1.402245998382568	65.96674346923837	-1330.864990234375	209.5390319824219	75.48451995849618	-1355.550659179688	158.0664215087891	50.87597656250009	-1458.223510742188	35.99239349365234	731.7288818359376	-1001.707580566406	82.08661651611328	669.1661987304689	-982.8447875976562	37.4481201171875	669.5598754882814	-1005.927856445312	28.31574058532715	337.8398132324219	-1003.278442382812	74.14686584472656	272.9061584472657	-999.0668334960938	25.67718124389648	277.3752746582032	-1013.468444824219	3.003861904144287	64.55222320556648	-1103.520629882812	210.1470336914062	69.02943420410163	-1058.719116210938	152.7374877929688	64.89299774169928	-965.6827392578125	97.1627197265625	1386.686157226562	-1217.018310546875	169.4462890625	1252.186889648438	-1217.177001953125	7.344504356384277	1371.868530273438	-1424.355834960938	29.45848846435547	1221.061157226562	-1486.732788085938	20.52349853515625	1157.001220703125	-1494.310913085938	70.18655395507812	1170.947021484375	-1492.298461914062	140.7353668212891	949.3749389648439	-1475.939697265625	138.0199127197266	884.6973266601564	-1485.293701171875	168.5064544677734	898.3285522460939	-1448.31298828125	172.5375061035156	798.7839965820314	-1464.64111328125	32.66597366333008	1369.687744140625	-1006.54345703125	84.00435638427734	1188.947998046875	-966.0974121093749	121.7375335693359	1141.274291992188	-990.8599853515624	92.38951873779297	1124.626586914062	-952.8336791992186	159.6526336669922	933.5832519531251	-973.6282958984374	183.3574981689453	883.7803955078126	-1007.386413574219	164.4692077636719	870.9820556640626	-961.441650390625	177.5759429931641	793.3302001953126	-965.3896484375	0.05215999856591225	0.007894840091466907	-0.06641639769077301	0.06747689843177795	0.0666654035449028	-0.06600580364465714	0.02503079921007156	0.07085300236940384	-0.04450520128011703	0.09668300300836563	2.175549983978271	-2.043600082397461	1.932620048522949	2.851540088653564	-1.901640057563782	2.691900014877319	0	0	
2485	12.42	133.6562042236328	672.6322021484376	-2319.99755859375	185.1593017578125	655.4507446289062	-98.80245971679683	201.205322265625	1520.997436523438	-1203.737426757812	153.1443481445312	1558.2431640625	-1124.893310546875	152.09912109375	1562.975341796875	-1283.761840820312	-51.63309860229492	1466.445922851562	-1204.156982421875	-108.2943496704102	1251.97705078125	-1212.612060546875	-110.0977020263672	1221.419189453125	-1216.008911132812	-112.6669921875	1163.625	-1160.740966796875	-106.4801483154297	1160.019775390625	-1209.8818359375	-91.55975341796875	1121.338500976562	-1208.49169921875	-111.2231521606445	1088.660034179688	-1212.633544921875	-103.2356033325195	1028.74560546875	-1160.456298828125	-109.2721252441406	1026.563232421875	-1210.223754882812	-102.2593078613281	977.3674316406251	-1230.134643554688	-91.21829986572266	986.8581542968751	-1181.061889648438	-123.7275619506836	929.9127807617189	-1189.388305664062	39.49817657470703	758.7855224609376	-1430.876831054688	6.305130958557129	690.5342407226564	-1405.205078125	49.44231414794922	698.1270141601564	-1429.3134765625	50.52722549438477	345.2432556152345	-1423.292114257812	14.48513603210449	276.3290405273439	-1410.175659179688	62.2611198425293	284.502410888672	-1420.339477539062	1.405128717422485	65.96251678466805	-1330.87158203125	209.5375518798828	75.49446868896493	-1355.5546875	158.067138671875	50.87302780151376	-1458.226440429688	35.84378433227539	731.6052246093751	-1001.610534667969	81.90299224853516	669.0425415039064	-982.7442626953125	37.3004150390625	669.4364013671876	-1005.855224609375	28.29761123657227	337.8174438476563	-1003.159545898438	74.13346099853516	272.8898315429688	-998.98046875	25.60323905944824	277.3626098632813	-1013.32080078125	2.990412712097168	64.54747009277351	-1103.49560546875	210.1433715820312	69.03859710693366	-1058.712524414062	152.7316741943359	64.88519287109381	-965.673583984375	98.79556274414062	1386.502197265625	-1216.922119140625	170.5307464599609	1251.66455078125	-1217.046875	9.059445381164551	1372.02099609375	-1424.297485351562	30.70934104919434	1221.148559570312	-1486.649291992188	21.57821846008301	1157.119140625	-1494.271118164062	71.28804779052734	1170.899536132812	-1492.2080078125	141.1800231933594	949.1290893554689	-1475.855834960938	138.2902374267578	884.4562377929689	-1485.207641601562	168.7916564941406	898.0084228515626	-1448.21240234375	172.5765533447266	798.4508666992189	-1464.545654296875	34.21613311767578	1369.731323242188	-1006.478576660156	85.02237701416016	1188.841918945312	-966.0816650390624	122.5956726074219	1141.055297851562	-990.8660888671874	93.23298645019531	1124.493041992188	-952.8201904296874	159.9575042724609	933.2904663085939	-973.5775756835936	183.5570831298828	883.4329223632814	-1007.327514648438	164.6516571044922	870.6727294921876	-961.381103515625	177.5932312011719	793.0142211914064	-965.3369140625	0.05311169847846031	0.007948280312120918	-0.06574220210313797	0.07073929905891418	0.06540170311927795	-0.06634339690208435	0.02456779964268208	0.07254090160131454	-0.04444760084152221	0.09701229631900787	2.174860000610352	-2.043469905853271	1.931939959526062	2.851079940795898	-1.89952003955841	2.701649904251099	0	0	
